{"title":"Shooting Stars S08E01 HDTV XviD-ANGELiC","uid":6591714,"size":243006093,"categoryP":"video","categoryS":"tv_shows","magnet":"?xt=urn:btih:ebc7ed25fb5b62b1c162e44e21b042414c1df379&amp;dn=Shooting+Stars+S08E01+HDTV+XviD-ANGELiC&amp;tr=udp%3A%2F%2Ftracker.openbittorrent.com%3A80&amp;tr=udp%3A%2F%2Fopen.demonii.com%3A1337&amp;tr=udp%3A%2F%2Ftracker.coppersurfer.tk%3A6969&amp;tr=udp%3A%2F%2Fexodus.desync.com%3A6969","seeders":0,"leechers":1,"uploader":"xtrancex","files":-1,"time":1312856945,"description":"\nGeneral\nComplete name                    : shooting.stars.s08e01.hdtv.xvid-angelic.avi\nFormat                           : AVI\nFormat/Info                      : Audio Video Interleave\nFile size                        : 232 MiB\nDuration                         : 28mn 47s\nOverall bit rate                 : 1 125 Kbps\nWriting application              : transcode-1.1.5\n\nVideo\nID                               : 0\nFormat                           : MPEG-4 Visual\nFormat profile                   : Advanced Simple@L5\nFormat settings, BVOP            : 2\nFormat settings, QPel            : No\nFormat settings, GMC             : No warppoints\nFormat settings, Matrix          : Default (H.263)\nCodec ID                         : XVID\nCodec ID/Hint                    : XviD\nDuration                         : 28mn 47s\nBit rate                         : 987 Kbps\nWidth                            : 624 pixels\nHeight                           : 352 pixels\nDisplay aspect ratio             : 16:9\nFrame rate                       : 25.000 fps\nColor space                      : YUV\nChroma subsampling               : 4:2:0\nBit depth                        : 8 bits\nScan type                        : Progressive\nCompression mode                 : Lossy\nBits/(Pixel*Frame)               : 0.180\nStream size                      : 203 MiB (88%)\nWriting library                  : XviD 1.2.1 (UTC 2008-12-04)\n\nAudio\nID                               : 1\nFormat                           : MPEG Audio\nFormat version                   : Version 1\nFormat profile                   : Layer 3\nMode                             : Joint stereo\nMode extension                   : MS Stereo\nCodec ID                         : 55\nCodec ID/Hint                    : MP3\nDuration                         : 28mn 1s\nBit rate mode                    : Variable\nBit rate                         : 128 Kbps\nChannel(s)                       : 2 channels\nSampling rate                    : 48.0 KHz\nCompression mode                 : Lossy\nStream size                      : 25.9 MiB (11%)\nAlignment                        : Aligned on interleaves\nInterleave, duration             : 25 ms (0.62 video frame)\n\n\nScreens:\n &lt;a href=&quot;\nhttp://bayimg.com/JajPKAadh&quot; rel=&quot;nofollow&quot; target=&quot;_NEW&quot;&gt;\nhttp://bayimg.com/JajPKAadh&lt;/a&gt; &lt;a href=&quot;\nhttp://bayimg.com/JAjpMAADh&quot; rel=&quot;nofollow&quot; target=&quot;_NEW&quot;&gt;\nhttp://bayimg.com/JAjpMAADh&lt;/a&gt; &lt;a href=&quot;\nhttp://bayimg.com/jAJPOaADh&quot; rel=&quot;nofollow&quot; target=&quot;_NEW&quot;&gt;\nhttp://bayimg.com/jAJPOaADh&lt;/a&gt;\n\n","torrent":{"xt":"urn:btih:ebc7ed25fb5b62b1c162e44e21b042414c1df379","amp;dn":"Shooting+Stars+S08E01+HDTV+XviD-ANGELiC","amp;tr":["udp%3A%2F%2Ftracker.openbittorrent.com%3A80","udp%3A%2F%2Fopen.demonii.com%3A1337","udp%3A%2F%2Ftracker.coppersurfer.tk%3A6969","udp%3A%2F%2Fexodus.desync.com%3A6969"],"infoHash":"ebc7ed25fb5b62b1c162e44e21b042414c1df379","infoHashBuffer":{"type":"Buffer","data":[235,199,237,37,251,91,98,177,193,98,228,78,33,176,66,65,76,29,243,121]},"announce":[],"urlList":[]}}